<?xml version="1.0" encoding="UTF-8" standalone="no"?>
<!-- Generator: Adobe Illustrator 23.0.0, SVG Export Plug-In . SVG Version: 6.00 Build 0)  -->

<svg
   version="1.1"
   id="Layer_1"
   x="0px"
   y="0px"
   viewBox="0 0 800 500"
   style="enable-background:new 0 0 800 500;"
   xml:space="preserve"
   sodipodi:docname="arbfonts-wedding-30-2.svg"
   inkscape:version="1.1.2 (0a00cf5339, 2022-02-04)"
   xmlns:inkscape="http://www.inkscape.org/namespaces/inkscape"
   xmlns:sodipodi="http://sodipodi.sourceforge.net/DTD/sodipodi-0.dtd"
   xmlns="http://www.w3.org/2000/svg"
   xmlns:svg="http://www.w3.org/2000/svg"><defs
   id="defs26" /><sodipodi:namedview
   id="namedview24"
   pagecolor="#ffffff"
   bordercolor="#666666"
   borderopacity="1.0"
   inkscape:pageshadow="2"
   inkscape:pageopacity="0.0"
   inkscape:pagecheckerboard="0"
   showgrid="false"
   inkscape:zoom="1.66"
   inkscape:cx="400"
   inkscape:cy="250"
   inkscape:window-width="1920"
   inkscape:window-height="1008"
   inkscape:window-x="0"
   inkscape:window-y="0"
   inkscape:window-maximized="1"
   inkscape:current-layer="Layer_1" />
<g
   id="g19">
	<path
   fill="#000000"
   id="XMLID_4378_"
   d="M299.82,139.94c-1.08-0.82-2.19-1.6-3.25-2.46c-16.38-13.31-34.75-22.4-55.62-26.11   c-14.44-2.56-28.84-2.4-43.02,1.66c-11.15,3.19-20.85,9.22-29.86,16.33c-17.76,14.02-27.88,32.35-30.83,54.83   c-2.51,19.06,1.83,36.47,11.77,52.63c9.54,15.5,22.55,27.66,37.36,38.02c4.65,3.25,9.58,5.93,14.82,8.12   c24.72,10.33,50.07,18.56,76.46,23.35c19.75,3.59,39.67,5.97,59.71,3.79c20.36-2.21,40.6-5.41,59.76-13.26   c10.54-4.32,20.4-9.76,28.78-17.55c13.51-12.55,20.52-27.88,19.46-46.55c-0.04-0.65-0.13-1.29-0.51-1.95   c-0.55,2.86-0.96,5.75-1.67,8.57c-3.2,12.72-11.78,20.59-24.25,21.76c-11.64,1.09-22.52-1.45-32.01-8.52   c-3-2.23-5.85-4.81-8.24-7.67c-7.92-9.48-13.26-20.28-14.92-32.63c-2.58-19.18,11.8-37.12,31.06-38.85   c5.5-0.5,10.76,0.9,15.88,2.75c5.24,1.9,10.03,4.67,14.4,8.12c16.01,12.62,26.69,28.78,31.16,48.68   c4.57,20.35,0.93,39.54-9.81,57.34c-13.45,22.3-32.87,37.53-56.79,47.27c-16.58,6.75-33.89,10.64-51.69,12.1   c-9.37,0.77-18.81,1.05-28.21,1c-15.5-0.09-30.65-3.05-45.67-6.6c-32.91-7.77-63.32-21.15-90.71-41.07   c-14.36-10.44-27.35-22.37-37.62-36.98c-16.97-24.13-25.42-50.88-23.01-80.45c1.94-23.79,10.11-45.15,27.47-62.27   c11.9-11.73,26.4-18.68,42.49-22.58c31.98-7.75,73.68-0.64,102.02,22.65C290.5,128.17,295.91,133.31,299.82,139.94z M390.32,213.88   c0.05,0.36,0.14,1.3,0.31,2.22c2.08,11.18,10.22,18.9,21.56,21.5c8.27,1.9,14.8-5.78,13.04-13.15   c-2.05-8.55-6.72-15.42-13.78-20.63c-1.39-1.03-3.06-1.77-4.7-2.34C397.72,198.36,390.26,203.76,390.32,213.88z" />
	<path
   fill="#000000"
   id="XMLID_4371_"
   d="M303.56,139.72c5.24-8.24,11.88-15.04,19.04-21.37c19.25-17.03,41.57-27.8,66.82-32.36   c17.5-3.16,34.9-3.07,51.93,2.89c0.43,0.15,0.91,0.15,1.84,0.29c-2.15-20.68-5.71-41.05-5.28-61.73c1.06,6.72,1.81,13.5,3.24,20.14   c3.11,14.36,6.61,28.64,9.88,42.97c0.54,2.38,2.21,3.39,4.15,4.41c21.47,11.3,36.34,28.51,44.81,51.11   c6.63,17.68,8.67,36.07,7.13,54.87c-0.81,9.87-2.35,19.62-4.74,29.23c-0.26,1.03-0.2,2.42,0.29,3.32   c6.3,11.45,12.76,22.83,21.6,32.59c9.72,10.74,21.4,18.46,35.63,21.68c8.48,1.92,16.64,0.48,23.88-4.68   c5.87-4.18,8.93-9.93,8.95-17.14c0.01-3.84-0.23-7.69-2.34-11.27c-0.07,0.85-0.16,1.7-0.21,2.55   c-0.57,10.26-6.86,16.77-17.13,17.67c-7.14,0.63-14.14-0.12-20.8-2.84c-16.22-6.63-28.74-17.34-36.01-33.55   c-5.64-12.58-0.29-25.3,12.6-30.23c2.18-0.84,4.48-1.52,6.79-1.85c13.95-2,26.88,0.39,38.57,8.72   c11.7,8.33,20.97,18.85,28.69,30.83c2.42,3.75,4.67,7.64,6.72,11.6c5.04,9.74,6.41,20.22,4.85,30.9   c-2.37,16.21-12.13,26.62-27.18,32.3c-10.03,3.79-20.09,3.19-30.06-0.38c-12.86-4.6-23.93-12.08-33.71-21.46   c-12.12-11.61-22.88-24.36-31.49-38.83c-0.34-0.58-0.77-1.11-1.44-2.04c-0.84,1.34-1.52,2.38-2.16,3.44   c-12.87,21.54-28.18,41.18-46.29,58.56c-10.9,10.45-23.01,19.47-35.44,28c-13.78,9.45-27.81,18.53-41.74,27.76   c-1.15,0.76-2.38,1.41-3.9,1.7c1.01-0.78,1.99-1.6,3.03-2.35c20.58-14.74,41-29.72,60.26-46.17c23.26-19.86,43.26-42.58,58.29-69.4   c1.15-2.05,2.12-4.21,3.3-6.24c0.93-1.61,0.74-3.01-0.07-4.63c-17.4-34.54-27.9-71.35-35.3-109.11   c-2.3-11.76-3.59-23.73-5.11-35.63c-0.35-2.74-1.39-4.14-3.99-4.98c-10.74-3.47-21.73-4.96-32.99-5.23   c-23.57-0.57-44.97,6.39-65.16,17.99c-13,7.47-25.18,16.1-36.76,25.59C305.56,138.18,304.55,138.94,303.56,139.72z M455.53,105.68   c10.22,40.2,22.57,79.07,41.24,116.6c0.41-1.66,0.75-2.51,0.82-3.39c0.42-5.04,0.91-10.08,1.12-15.13   c0.54-12.75-0.3-25.41-2.76-37.94c-3.13-15.94-10.63-29.84-20.05-42.81c-4.75-6.54-10.85-11.74-17.7-16.03   C457.48,106.53,456.66,106.23,455.53,105.68z M543.97,237.81c0.39,1.58,0.62,3.23,1.21,4.74c2.57,6.51,12.11,12.32,19.08,11.73   c5.19-0.44,8.5-5.19,6.67-10.08c-2.35-6.31-6.59-11.07-12.86-13.79c-2.93-1.27-5.97-1.21-8.93-0.04   C545.87,231.66,544.18,234.26,543.97,237.81z" />
	<path
   fill="#000000"
   id="XMLID_4293_"
   d="M646.11,212.61c-3.8,4.91-4.2,7.76-1.29,12.72c1.06,1.81,2.41,3.48,3.8,5.07   c5.58,6.38,11.28,12.65,16.84,19.05c5.88,6.77,11.07,14.05,15.5,21.85c4.26,7.49,6.96,15.45,6.69,24.17   c-0.07,2.32-0.42,4.71-1.11,6.91c-3.72,11.88-11.1,20.71-22.7,25.47c-5.85,2.4-11.99,4.15-18.1,5.83   c-10.45,2.88-21.12,4.68-31.9,5.83c-1.28,0.14-2.57,0.18-3.9,0.07c3.9-1.05,7.82-2.04,11.69-3.18c7.06-2.08,13.57-5.31,19.53-9.62   c7.4-5.35,11.33-12.71,12.55-21.64c1.59-11.73-0.7-22.68-6.48-32.98c-6.84-12.19-15.51-23.01-24.91-33.27   c-1.75-1.91-3.72-3.65-5.26-5.71c-1.53-2.04-2.96-4.28-3.86-6.65c-1.44-3.81-0.37-6.58,3.44-8.02c4.59-1.74,9.37-3.13,14.18-4.07   C635.86,213.46,641.01,213.2,646.11,212.61z" />
	<path
   fill="#000000"
   id="XMLID_4349_"
   d="M273.99,215.92c-1.48-0.98-2.56-1.65-3.59-2.37c-6.01-4.23-10.33-9.54-11-17.21   c-0.48-5.55,1.87-9.67,6.57-12.28c2.2-1.23,4.8-2.1,7.3-2.35c7.92-0.81,14.99,1.63,21.24,6.81c-0.7-0.09-1.4-0.15-2.08-0.28   c-8.63-1.7-17.1-1.1-25.38,1.81c-5.01,1.76-5.44,3.22-2.41,7.66c3.18,4.65,7.31,8.27,12.41,10.71c5.65,2.7,11.23,1.73,16.74-0.48   c3.38-1.35,6.71-2.83,10.08-4.23c1.06-0.44,2.16-0.81,3.31-1.23c0.33,3.52-1.49,6.76-4.41,8.05c-8.6,3.8-17.21,7.57-25.82,11.35   c-3.44,1.51-6.86,3.08-10.35,4.5c-1.62,0.66-2.3,1.62-2.39,3.4c-0.27,5.24-2.15,9.88-5.98,13.54c-3.98,3.81-7.99,7.61-12.17,11.2   c-3.64,3.12-8.11,4.79-12.7,5.86c-4.83,1.12-9.05-0.63-12.63-3.83c-3.29-2.95-4.97-6.81-5.53-11.14   c-0.75-5.79-0.32-11.5,1.35-17.11c0.1-0.33,0.25-0.66,0.44-0.95c0.11-0.16,0.37-0.23,0.77-0.46c-0.24,2.22-0.48,4.31-0.69,6.39   c-0.14,1.4-0.28,2.81-0.37,4.22c-0.85,12.53,9.25,16.45,17.62,14.37c4.52-1.12,8.73-3.04,12.31-5.93   c4.29-3.46,8.24-7.33,12.31-11.05c0.51-0.47,0.93-1.07,1.31-1.65c0.79-1.2,1.51-2.47,0.7-3.93c-0.87-1.56-2.27-0.63-3.48-0.67   c-3.03-0.1-6.11-0.01-9.09-0.51c-3.11-0.52-4.77-2.76-5.16-5.92c-0.42-3.46,0.36-6.55,2.7-9.17c2.7-3.02,6.25-3.55,9.44-1.05   c2.1,1.65,3.82,3.79,5.67,5.76c0.7,0.75,1.28,1.62,2.04,2.6C266.7,218.87,270.13,217.48,273.99,215.92z M254.9,221.4   c0.06-0.31,0.12-0.61,0.17-0.92c-1.45-1.77-3.18-3.13-5.64-2.81c-0.79,0.11-1.96,0.68-2.16,1.29c-0.39,1.24,0.77,1.96,1.81,2.1   C251.01,221.32,252.96,221.3,254.9,221.4z" />
	<path
   fill="#000000"
   id="XMLID_4286_"
   d="M551.85,196.81c-6.11-4.58-13.01-5.51-19.86-6.62c-1.04-0.17-2.08-0.36-3.1-0.61   c-5.4-1.31-9.02-4.42-9.92-10.12c-0.9-5.72,0.76-10.54,5.59-13.87c4.7-3.24,9.68-3.15,14.65-0.45c1.01,0.55,1.96,1.19,3.14,1.91   c0.45-1.19,0.79-2.15,1.17-3.09c1.12-2.8,2.89-5.09,5.36-6.83c5.22-3.67,12.01-3.36,16.21,0.72c5.02,4.88,5.74,11.17,1.82,16.88   c-1.26,1.83-2.67,3.59-4.18,5.22C558.22,184.79,554.24,189.97,551.85,196.81z" />
	<path
   fill="#000000"
   id="XMLID_4285_"
   d="M612.38,169.69c0.87-0.98,1.59-1.89,2.4-2.69c4.42-4.4,9.67-5.71,15.54-3.71   c4.47,1.53,7.12,4.85,7.96,9.51c0.87,4.79-0.88,8.52-4.77,11.32c-0.86,0.62-1.73,1.22-2.66,1.73c-6.61,3.59-13.45,6.82-18.36,13.35   c-4.51-6-10.61-9.04-16.73-12.1c-1.77-0.89-3.46-2.01-5.03-3.22c-4.07-3.16-5.31-7.37-3.94-12.26c1.39-4.94,4.61-8.15,9.75-9.08   c5.52-1.01,10.23,0.55,13.93,4.87C611.08,168.11,611.67,168.83,612.38,169.69z" />
	<path
   fill="#000000"
   id="XMLID_4284_"
   d="M382.57,137.27c0.46-1.17,0.76-2.03,1.13-2.87c1.07-2.46,2.83-4.32,5.14-5.63   c7.88-4.48,18.65-1.31,22.9,6.71c2.15,4.06,1.81,7.7-1.35,10.99c-1.7,1.77-3.67,3.3-5.63,4.77c-4.27,3.2-8.22,6.65-10.63,11.77   c-0.93-0.47-1.76-0.84-2.54-1.29c-4.74-2.71-9.91-4.2-15.15-5.59c-3.5-0.93-7.01-1.99-10.31-3.45c-3.87-1.71-6.23-4.92-7.03-9.12   c-0.91-4.77,1.07-8.34,5.59-10.08c4.71-1.81,9.24-1,13.6,1.22C379.63,135.39,380.89,136.26,382.57,137.27z" />
	<path
   fill="#000000"
   id="XMLID_4276_"
   d="M341.01,216.76c-1.34-2.51-3.37-3.55-5.33-4.53c-3.25-1.63-6.59-3.11-9.93-4.56   c-6.33-2.75-12.04-6.38-16.74-11.5c-0.4-0.43-0.77-0.97-1.27-1.21c-4.05-1.9-3.61-5.54-3.8-9.06c3.24,0.32,10.46,3.53,12.98,5.82   c-1.18,0.33-2.18,0.6-3.72,1.03c1.41,1.08,2.42,2.06,3.6,2.71c3.19,1.75,6.42,3.43,9.7,5.02c2.75,1.33,5.6,2.44,8.37,3.75   c6.73,3.18,9.9,11.25,7.06,18.17c-0.51,1.25-1.48,2.44-2.52,3.33c-8.67,7.47-17.93,14.13-28.18,19.24   c-6.7,3.34-12.45,0.34-14.22-6.95c-1.54-6.36-0.81-15.32,2.1-20.29c-0.12,1.14-0.28,2.27-0.36,3.42c-0.21,3.28-0.7,6.58-0.5,9.84   c0.35,5.81,4.51,8.52,10.1,6.72c2.44-0.79,4.92-1.75,7.06-3.14c7.79-5.04,15.45-10.29,23.14-15.5   C339.39,218.5,340.06,217.66,341.01,216.76z" />
	<path
   fill="#000000"
   id="XMLID_4329_"
   d="M222.05,197.31c-4.1,5.25-8.57,9.62-15.03,11.37c4.28-4.37,8.56-8.74,13.1-13.37   c-1.75-1.93-3.05-3.79-4.74-5.15c-3.19-2.56-2.65-5.61-1.88-9.16c4.01,1.16,6.95,3.63,10.76,5.88c-1.47,0.42-2.36,0.67-3.66,1.04   c0.77,0.95,1.37,1.69,2.19,2.71c2.41-3.89,4.31-7.26,6.5-10.42c1.46-2.1,3.23-4.02,5.08-5.79c0.73-0.7,2.16-1.26,3.06-1.04   c1.47,0.36,1.57,2.01,1.35,3.27c-0.57,3.34-0.98,6.78-2.12,9.93c-1.27,3.5-3.29,6.74-5.15,10.42c1.04,1.17,2.21,2.43,3.33,3.75   c3.7,4.35,5.41,9.28,4.28,15.02c-0.95,4.84-7.93,10.45-12.87,10.35c-2.86-0.06-4.79-1.76-5.47-5.02   c-1.08-5.22-0.55-10.29,1.75-15.13c0.86-1.8,1.74-3.58,2.75-5.66C224.27,199.37,223.29,198.46,222.05,197.31z M227.98,202.59   c-1.89,4.03-3.76,7.55-5.18,11.24c-1.03,2.69,0.4,4.55,3.21,4.31c4.67-0.39,8.25-2.81,11.18-6.4   C234.86,207.94,231.97,205.29,227.98,202.59z M234.74,181.06c-4.3,2.71-6.64,6.94-9.57,11.22c1.23,0.86,2.2,1.54,3.49,2.45   C231,190.03,234.04,186.17,234.74,181.06z" />
	<path
   fill="#000000"
   id="XMLID_4261_"
   d="M229.02,178.13c-2.51-1.47-4.52-2.64-6.81-3.98c-0.77,1.4-1.47,2.67-2.37,4.31   c-2.48-1.49-4.83-2.9-7.39-4.44c0.75-2.02,1.43-3.84,2.29-6.14c2.46,1.32,4.66,2.5,7.1,3.81c0.67-1.3,1.35-2.6,2.22-4.27   c2.09,1.24,4.07,2.42,6.05,3.6c1.06,0.63,1.42,1.54,0.93,2.69C230.44,175.08,229.79,176.43,229.02,178.13z" />
	<path
   fill="#000000"
   id="XMLID_4259_"
   d="M332.06,166.27c0.19,1.73-0.58,2.6-1.71,3.03c-10.06,3.9-20.14,7.76-30.45,11.72   c-0.42-2.43,0.92-3.45,2.61-4.11c2.41-0.95,4.87-1.74,7.3-2.63c6.3-2.31,12.58-4.64,18.88-6.94   C329.74,166.96,330.83,166.66,332.06,166.27z" />
	<path
   fill="#000000"
   id="XMLID_3155_"
   d="M282.27,163.83c-1.17,1.14-1.88,2.34-2.9,2.74c-9.83,3.86-19.71,7.58-29.57,11.34   c-0.08,0.03-0.21-0.05-0.5-0.13c-0.16-1.8,0.55-3,2.33-3.65c9.81-3.57,19.61-7.15,29.42-10.73   C281.13,163.37,281.25,163.47,282.27,163.83z" />
	<path
   fill="#000000"
   id="XMLID_3153_"
   d="M236.89,242.46c1.02-0.76,1.83-1.36,3.08-2.28c-0.39,1.62-0.5,2.91-1.02,4.01   c-1,2.12-3.16,2.16-4.35,0.11c-0.51-0.88-0.82-1.97-0.93-2.99c-0.41-3.81,0.26-7.44,2.23-11.28   C236.06,234.38,233.23,238.57,236.89,242.46z" />
	<path
   fill="#000000"
   id="XMLID_3151_"
   d="M287.15,236.9c-0.18,0.95-0.32,1.96-0.59,2.93c-0.34,1.22-1.16,2.35-2.45,2.03   c-0.96-0.24-2.32-1.23-2.45-2.06c-0.41-2.5-0.51-5.09-0.34-7.62c0.13-1.81,0.9-3.57,2.01-5.24c-0.25,1.6-0.53,3.19-0.74,4.79   c-0.14,1.04-0.42,2.16-0.19,3.13c0.28,1.17,0.81,2.49,1.68,3.2C284.47,238.39,285.94,237.39,287.15,236.9z" />
	<path
   fill="#000000"
   id="XMLID_3082_"
   d="M251.04,198.75c-0.32,3.67-1.12,5.01-2.77,5.04c-1.65,0.03-2.76-1.52-3.1-4.48   c-0.43-3.7,0.25-7.2,2.23-10.46c-0.23,1.57-0.5,3.15-0.69,4.72c-0.13,1.05-0.29,2.11-0.22,3.16   C246.71,200.1,247.94,200.69,251.04,198.75z" />
	<path
   fill="#000000"
   id="XMLID_3051_"
   d="M313.39,210.63c-0.33,2.2-0.59,3.67-0.77,5.16c-0.1,0.81-0.25,1.69-0.05,2.46   c0.31,1.19,0.6,2.68,1.44,3.37c1.42,1.17,1.98-1.04,3.49-1.49c-0.36,1.43-0.5,2.72-1.01,3.85c-0.87,1.94-2.95,2.11-4.22,0.4   c-0.41-0.55-0.7-1.24-0.89-1.9C310.51,219.43,311.25,214.54,313.39,210.63z" />
	<path
   fill="#000000"
   id="XMLID_3049_"
   d="M213.37,213.11c0.85,0.72,1.7,1.44,2.55,2.15c-0.07,0.26-0.14,0.51-0.21,0.77   c-0.78,0.11-1.88,0.58-2.28,0.24c-0.62-0.53-0.77-1.61-1.12-2.46C212.66,213.58,213.02,213.35,213.37,213.11z" />
</g>

</svg>
