<?xml version="1.0" encoding="UTF-8"?>
<!-- Created with Inkscape (http://www.inkscape.org/) -->
<svg width="666.67" height="666.67" version="1.1" viewBox="0 0 666.67 666.67" xml:space="preserve" xmlns="http://www.w3.org/2000/svg"><defs><clipPath id="clipPath18"><path d="m0 500h500v-500h-500z"/></clipPath></defs><g transform="matrix(1.3333 0 0 -1.3333 0 666.67)"><g clip-path="url(#clipPath18)"><g transform="translate(246.09 179.78)"><path d="m0 0s5.024 20.673 5.588 38.518l11.459-10.707-1.218-15.856-1.225-9.973-7.043-3.099z" fill="#004210"/></g><g transform="translate(261.92 191.73)"><path d="m0 0c-1.593-6.521-7.368-7.402-9.104-7.612-1.736-0.211-3.535-0.541-4.937-1.587-1.403-1.045-2.37-3.17-1.603-4.741 1.887-3.862 6.927-4.869 11.221-4.688 9.994 0.42 19.444 4.64 28.109 9.639 8.665 4.998 16.86 10.856 25.934 15.065 9.075 4.208 20.522 7.171 30.274 4.94 6.18 11.44 6.723 25.139 5.059 38.035-1.665 12.896-5.371 25.454-7.201 38.327-1.831 12.874-1.878 27.238 3.855 38.909-10.769 2.547-22.17 0.143-32.408-4.061-10.237-4.204-19.654-10.148-29.553-15.096-9.9-4.947-20.608-8.959-31.673-8.838 5.353-17.37 7.671-35.317 10.304-53.302 2.084-14.228 5.135-31.02 1.723-44.99"/></g><g transform="translate(310.18 275.28)"><path d="m0 0c-18.299-5.575-34.543-17.006-52.074-24.336 0.713-4.731 1.388-9.474 2.084-14.22 2.084-14.228 5.135-31.02 1.722-44.99-1.592-6.52-7.367-7.402-9.104-7.612-1.736-0.211-3.535-0.541-4.937-1.587-1.402-1.045-2.37-3.17-1.602-4.741 1.886-3.862 6.927-4.868 11.221-4.688 9.994 0.42 19.443 4.64 28.108 9.639 8.665 4.998 16.86 10.856 25.936 15.065 9.074 4.208 20.52 7.171 30.272 4.94 6.181 11.44 6.724 25.139 5.06 38.035-1.661 12.86-5.349 25.386-7.185 38.222-9.95 0.424-19.974-0.824-29.501-3.727" fill="#fff"/></g><g transform="translate(346.88 240.71)"><path d="m0 0c-7.155 1.842-14.904 1.305-22.068-0.702-8.733-2.446-16.745-6.932-24.478-11.667-7.734-4.735-15.324-9.779-23.591-13.509-4.316-1.947-8.806-3.498-13.392-4.684 0.275-6.366-0.021-12.631-1.433-18.412-1.593-6.52-7.367-7.402-9.104-7.612-1.736-0.211-3.535-0.541-4.937-1.587-1.403-1.045-2.37-3.17-1.602-4.741 1.886-3.861 6.926-4.868 11.22-4.688 9.994 0.42 19.444 4.64 28.109 9.639 8.665 4.998 16.86 10.857 25.935 15.066 9.074 4.208 20.521 7.17 30.273 4.939 6.168 11.418 6.72 25.084 5.068 37.958" fill="#005518"/></g><g transform="translate(177.59 187.88)"><path d="m0 0c3.167 40.847-0.653 77.85-9.378 115.49 29.873 1.373 40.594 10.349 60.241 13.928 7.361 1.341 15.18 2.546 22.14-0.199 12.232-4.825 16.916-19.506 18.935-32.498 5.213-33.552 4.201-60.985-7.61-92.87 0.623 5.621-1.641 10.556-7.014 12.964-5.53 2.48-12.234 0.537-18.1-0.989-18.799-4.892-39.956-18.38-59.214-15.829"/></g><g transform="translate(271.19 272.15)"><path d="m0 0c-3.327 3.778-8.152 6.422-13.121 7.568-7.802 1.8-15.952 0.599-23.84-0.774-19.88-3.458-39.573-7.979-58.979-13.503 3.445-25.035 4.436-50.45 2.334-77.561 19.258-2.55 40.415 10.937 59.214 15.83 5.866 1.526 12.57 3.468 18.1 0.989 5.373-2.408 7.637-7.344 7.014-12.965 10.317 27.853 12.392 52.311 9.278 80.416" fill="#fff"/></g><g transform="translate(271.77 233.78)"><path d="m0 0c-4.388 4.945-11.426 7.688-18.198 8.014-8.98 0.432-17.732-2.492-26.363-5.007-15.925-4.642-32.228-7.971-48.69-10.008 0.382-12.663 0.105-25.575-0.928-38.901 19.258-2.551 40.414 10.936 59.214 15.829 5.865 1.526 12.57 3.469 18.1 0.989 5.373-2.408 7.636-7.344 7.013-12.965 5.413 14.612 8.535 28.29 9.852 42.049" fill="#006b23"/></g><g transform="translate(168.22 303.34)"><path d="m0 0c8.721-37.632 12.538-74.625 9.372-115.46 3e-3 -1e-3 7e-3 -1e-3 0.01-1e-3 19.931 22.719 38.24 47.947 53.601 73.607-20.857 14.017-42.011 27.893-62.983 41.855" fill="#f2172b"/></g></g></g></svg>
